# xmcd CD database file
#
# Track frame offsets:
#	150
#	17095
#	33852
#	50747
#
# Disc length: 894 seconds
#
# Revision: 2
# Processed by: cddbd v1.4b41PL1 Copyright (c) Steve Scherf et al.
# Submitted via: Feurio! 1.50.2ß - http://www.feurio.com
#
DISCID=2a037c04
DTITLE=Andreas Elsholz - Weil Ich Dich Liebe
DYEAR=1900
DGENRE=
TTITLE0=Weil Ich Dich Liebe, radio edit
TTITLE1=Weil Ich Dich Liebe, soft drums
TTITLE2=Weil Ich Dich Liebe, instrumental
TTITLE3=Du Bist Die Insel
EXTD=
EXTT0=
EXTT1=
EXTT2=
EXTT3=
PLAYORDER=
